{"title":"The Music Never Stopped (2011) DvdRip [Xvid] {1337x}-X","uid":6583601,"size":734289920,"categoryP":"video","categoryS":"movies","magnet":"?xt=urn:btih:c2a51127f0969d0bfaaba9fb39fadb1115955a4f&amp;dn=The+Music+Never+Stopped+%282011%29+DvdRip+%5BXvid%5D+%7B1337x%7D-X&amp;tr=udp%3A%2F%2Ftracker.openbittorrent.com%3A80&amp;tr=udp%3A%2F%2Fopen.demonii.com%3A1337&amp;tr=udp%3A%2F%2Ftracker.coppersurfer.tk%3A6969&amp;tr=udp%3A%2F%2Fexodus.desync.com%3A6969","seeders":0,"leechers":1,"uploader":"hiest","files":-1,"time":1312525765,"description":"##     ## ##     ##  ######  ########    ###    ##    ##  ######   ##     ## \n###   ### ##     ## ##    ##    ##      ## ##   ###   ## ##    ##   ##   ##  \n#### #### ##     ## ##          ##     ##   ##  ####  ## ##          ## ##   \n## ### ## ##     ##  ######     ##    ##     ## ## ## ## ##   ####    ###    \n##     ## ##     ##       ##    ##    ######### ##  #### ##    ##    ## ##   \n##     ## ##     ## ##    ##    ##    ##     ## ##   ### ##    ##   ##   ##  \n##     ##  #######   ######     ##    ##     ## ##    ##  ######   ##     ## \n\n Video\n ID : 0\n Format : MPEG-4 Visual\n Format profile : Advanced Simple@L5\n Format settings, BVOP : Yes\n Format settings, QPel : No\n Format settings, GMC : No warppoints\n Format settings, Matrix : Default (H.263)\n Muxing mode : Packed bitstream\n Codec ID : XVID\n Codec ID/Hint : XviD\n Duration : 1h 44mn\n Bit rate : 821 Kbps\n Width : 720 pixels\n Height : 288 pixels\n Display aspect ratio : 2.500\n Frame rate : 23.976 fps\n Color space : YUV\n Chroma subsampling : 4:2:0\n Bit depth : 8 bits\n Scan type : Progressive\n Bits/(Pixel*Frame) : 0.165\n Stream size : 615 MiB (88%)\n Writing library : XviD 57\n\n\n Audio\n ID : 1\n Format : MPEG Audio\n Format version : Version 1\n Format profile : Layer 3\n Mode : Joint stereo\n Mode extension : MS Stereo\n Codec ID : 55\n Codec ID/Hint : MP3\n Duration : 1h 44mn\n Bit rate mode : Variable\n Bit rate : 100 Kbps\n Nominal bit rate : 112 Kbps\n Channel(s) : 2 channels\n Sampling rate : 48.0 KHz\n Stream size : 75.3 MiB (11%)\n Alignment : Aligned on interleaves\n Interleave, duration : 24 ms (0.58 video frame)\n Interleave, preload duration : 244 ms\n Writing library : LAME3.97 \n Encoding settings : -m j -V 4 -q 2 -lowpass 16 --abr 112\n\n\n IMDB\n &lt;a href=&quot; http://www.imdb.com/title/tt1613062/&quot; rel=&quot;nofollow&quot; target=&quot;_NEW&quot;&gt; http://www.imdb.com/title/tt1613062/&lt;/a&gt;\n\n Shout out to all my friends @ 1337x.org and extratorrent\n\n\n Screens:\n &lt;a href=&quot; http://leetleech.org/images/67633694618437601897.jpg&quot; rel=&quot;nofollow&quot; target=&quot;_NEW&quot;&gt; http://leetleech.org/images/67633694618437601897.jpg&lt;/a&gt;\n\n\n##     ## ##     ##  ######  ########    ###    ##    ##  ######   ##     ## \n###   ### ##     ## ##    ##    ##      ## ##   ###   ## ##    ##   ##   ##  \n#### #### ##     ## ##          ##     ##   ##  ####  ## ##          ## ##   \n## ### ## ##     ##  ######     ##    ##     ## ## ## ## ##   ####    ###    \n##     ## ##     ##       ##    ##    ######### ##  #### ##    ##    ## ##   \n##     ## ##     ## ##    ##    ##    ##     ## ##   ### ##    ##   ##   ##  \n##     ##  #######   ######     ##    ##     ## ##    ##  ######   ##     ## ","torrent":{"xt":"urn:btih:c2a51127f0969d0bfaaba9fb39fadb1115955a4f","amp;dn":"The+Music+Never+Stopped+%282011%29+DvdRip+%5BXvid%5D+%7B1337x%7D-X","amp;tr":["udp%3A%2F%2Ftracker.openbittorrent.com%3A80","udp%3A%2F%2Fopen.demonii.com%3A1337","udp%3A%2F%2Ftracker.coppersurfer.tk%3A6969","udp%3A%2F%2Fexodus.desync.com%3A6969"],"infoHash":"c2a51127f0969d0bfaaba9fb39fadb1115955a4f","infoHashBuffer":{"type":"Buffer","data":[194,165,17,39,240,150,157,11,250,171,169,251,57,250,219,17,21,149,90,79]},"announce":[],"urlList":[]}}